<?xml version="1.0" encoding="UTF-8" standalone="no"?>
<!DOCTYPE svg PUBLIC "-//W3C//DTD SVG 1.1//EN"
 "http://www.w3.org/Graphics/SVG/1.1/DTD/svg11.dtd">
<!-- Generated by graphviz version 2.38.0 (20140413.2041)
 -->
<!-- Title: G Pages: 1 -->
<svg width="368pt" height="712pt"
 viewBox="0.00 0.00 367.50 712.00" xmlns="http://www.w3.org/2000/svg" xmlns:xlink="http://www.w3.org/1999/xlink">
<g id="graph0" class="graph" transform="scale(1 1) rotate(0) translate(4 708)">
<title>G</title>
<polygon fill="white" stroke="none" points="-4,4 -4,-708 363.5,-708 363.5,4 -4,4"/>
<g id="clust1" class="cluster"><title>cluster_Global</title>
<polygon fill="none" stroke="black" points="8,-8 8,-696 351.5,-696 351.5,-8 8,-8"/>
<text text-anchor="middle" x="179.75" y="-683.2" font-family="Times New Roman,serif" font-size="11.00" fill="gray">Global</text>
</g>
<g id="clust2" class="cluster"><title>cluster_\classes</title>
<polygon fill="none" stroke="black" points="16,-96 16,-668 343.5,-668 343.5,-96 16,-96"/>
<text text-anchor="middle" x="179.75" y="-655.2" font-family="Times New Roman,serif" font-size="11.00" fill="gray">classes</text>
</g>
<g id="clust6" class="cluster"><title>cluster_\classes\parsers</title>
<polygon fill="none" stroke="black" points="25.5,-514 25.5,-640 308.5,-640 308.5,-514 25.5,-514"/>
<text text-anchor="middle" x="167" y="-627.2" font-family="Times New Roman,serif" font-size="11.00" fill="gray">parsers</text>
</g>
<g id="clust8" class="cluster"><title>cluster_\classes\routing</title>
<polygon fill="none" stroke="black" points="218.5,-380 218.5,-506 298.5,-506 298.5,-380 218.5,-380"/>
<text text-anchor="middle" x="258.5" y="-493.2" font-family="Times New Roman,serif" font-size="11.00" fill="gray">routing</text>
</g>
<g id="clust3" class="cluster"><title>cluster_\classes\connections</title>
<polygon fill="none" stroke="black" points="181.5,-300 181.5,-372 335.5,-372 335.5,-300 181.5,-300"/>
<text text-anchor="middle" x="258.5" y="-359.2" font-family="Times New Roman,serif" font-size="11.00" fill="gray">connections</text>
</g>
<g id="clust4" class="cluster"><title>cluster_\classes\fileManager</title>
<polygon fill="none" stroke="black" points="24,-184 24,-292 323.5,-292 323.5,-184 24,-184"/>
<text text-anchor="middle" x="173.75" y="-279.2" font-family="Times New Roman,serif" font-size="11.00" fill="gray">fileManager</text>
</g>
<g id="clust5" class="cluster"><title>cluster_\classes\fileManager\readers</title>
<polygon fill="none" stroke="black" points="32,-192 32,-264 315.5,-264 315.5,-192 32,-192"/>
<text text-anchor="middle" x="173.75" y="-251.2" font-family="Times New Roman,serif" font-size="11.00" fill="gray">readers</text>
</g>
<g id="clust7" class="cluster"><title>cluster_\classes\queryLanguages</title>
<polygon fill="none" stroke="black" points="213.5,-104 213.5,-176 302.5,-176 302.5,-104 213.5,-104"/>
<text text-anchor="middle" x="258" y="-163.2" font-family="Times New Roman,serif" font-size="11.00" fill="gray">queryLanguages</text>
</g>
<g id="clust9" class="cluster"><title>cluster_\factories</title>
<polygon fill="none" stroke="black" points="208.5,-16 208.5,-88 308.5,-88 308.5,-16 208.5,-16"/>
<text text-anchor="middle" x="258.5" y="-75.2" font-family="Times New Roman,serif" font-size="11.00" fill="gray">factories</text>
</g>
<!-- \\classes\\connections\\DatabaseConnection -->
<g id="node1" class="node"><title>\\classes\\connections\\DatabaseConnection</title>
<polygon fill="none" stroke="black" points="327.5,-344 189.5,-344 189.5,-308 327.5,-308 327.5,-344"/>
<text text-anchor="middle" x="258.5" y="-323.2" font-family="Courier,monospace" font-size="11.00">DatabaseConnection</text>
</g>
<!-- \\classes\\fileManager\\readers\\ReadSettings -->
<g id="node2" class="node"><title>\\classes\\fileManager\\readers\\ReadSettings</title>
<polygon fill="none" stroke="black" points="307.5,-236 209.5,-236 209.5,-200 307.5,-200 307.5,-236"/>
<text text-anchor="middle" x="258.5" y="-215.2" font-family="Courier,monospace" font-size="11.00">ReadSettings</text>
</g>
<!-- \\classes\\fileManager\\readers\\Readable -->
<g id="node3" class="node"><title>\\classes\\fileManager\\readers\\Readable</title>
<polygon fill="none" stroke="black" points="111,-236 40,-236 40,-200 111,-200 111,-236"/>
<text text-anchor="middle" x="75.5" y="-215.2" font-family="Courier,monospace" font-size="11.00">Readable</text>
</g>
<!-- \\classes\\fileManager\\readers\\ReadSettings&#45;&gt;\\classes\\fileManager\\readers\\Readable -->
<g id="edge1" class="edge"><title>\\classes\\fileManager\\readers\\ReadSettings&#45;&gt;\\classes\\fileManager\\readers\\Readable</title>
<path fill="none" stroke="black" stroke-dasharray="1,5" d="M209.471,-218C182.196,-218 148.264,-218 121.505,-218"/>
<polygon fill="none" stroke="black" points="121.261,-214.5 111.261,-218 121.261,-221.5 121.261,-214.5"/>
</g>
<!-- \\classes\\parsers\\JSONParser -->
<g id="node4" class="node"><title>\\classes\\parsers\\JSONParser</title>
<polygon fill="none" stroke="black" points="300.5,-612 216.5,-612 216.5,-576 300.5,-576 300.5,-612"/>
<text text-anchor="middle" x="258.5" y="-591.2" font-family="Courier,monospace" font-size="11.00">JSONParser</text>
</g>
<!-- \\classes\\parsers\\Parser -->
<g id="node5" class="node"><title>\\classes\\parsers\\Parser</title>
<polygon fill="none" stroke="black" points="117.5,-585 33.5,-585 33.5,-549 117.5,-549 117.5,-585"/>
<text text-anchor="start" x="41.5" y="-570.2" font-family="Courier,monospace" font-size="11.00">«abstract»</text>
<text text-anchor="start" x="55" y="-558.2" font-family="Courier,monospace" font-size="11.00">Parser</text>
</g>
<!-- \\classes\\parsers\\JSONParser&#45;&gt;\\classes\\parsers\\Parser -->
<g id="edge2" class="edge"><title>\\classes\\parsers\\JSONParser&#45;&gt;\\classes\\parsers\\Parser</title>
<path fill="none" stroke="black" d="M216.428,-587.873C190.139,-583.952 155.823,-578.833 127.754,-574.646"/>
<polygon fill="none" stroke="black" points="128.129,-571.163 117.722,-573.149 127.096,-578.086 128.129,-571.163"/>
</g>
<!-- \\classes\\parsers\\XMLParser -->
<g id="node6" class="node"><title>\\classes\\parsers\\XMLParser</title>
<polygon fill="none" stroke="black" points="297,-558 220,-558 220,-522 297,-522 297,-558"/>
<text text-anchor="middle" x="258.5" y="-537.2" font-family="Courier,monospace" font-size="11.00">XMLParser</text>
</g>
<!-- \\classes\\parsers\\XMLParser&#45;&gt;\\classes\\parsers\\Parser -->
<g id="edge3" class="edge"><title>\\classes\\parsers\\XMLParser&#45;&gt;\\classes\\parsers\\Parser</title>
<path fill="none" stroke="black" d="M219.997,-545.594C193.32,-549.574 157.159,-554.968 127.811,-559.346"/>
<polygon fill="none" stroke="black" points="127.116,-555.911 117.742,-560.848 128.149,-562.834 127.116,-555.911"/>
</g>
<!-- \\classes\\queryLanguages\\MySQL -->
<g id="node7" class="node"><title>\\classes\\queryLanguages\\MySQL</title>
<polygon fill="none" stroke="black" points="285.5,-148 231.5,-148 231.5,-112 285.5,-112 285.5,-148"/>
<text text-anchor="middle" x="258.5" y="-127.2" font-family="Courier,monospace" font-size="11.00">MySQL</text>
</g>
<!-- \\classes\\routing\\Request -->
<g id="node8" class="node"><title>\\classes\\routing\\Request</title>
<polygon fill="none" stroke="black" points="290.5,-478 226.5,-478 226.5,-442 290.5,-442 290.5,-478"/>
<text text-anchor="middle" x="258.5" y="-457.2" font-family="Courier,monospace" font-size="11.00">Request</text>
</g>
<!-- \\classes\\routing\\Router -->
<g id="node9" class="node"><title>\\classes\\routing\\Router</title>
<polygon fill="none" stroke="black" points="287,-424 230,-424 230,-388 287,-388 287,-424"/>
<text text-anchor="middle" x="258.5" y="-403.2" font-family="Courier,monospace" font-size="11.00">Router</text>
</g>
<!-- \\factories\\APIFactory -->
<g id="node10" class="node"><title>\\factories\\APIFactory</title>
<polygon fill="none" stroke="black" points="300.5,-60 216.5,-60 216.5,-24 300.5,-24 300.5,-60"/>
<text text-anchor="middle" x="258.5" y="-39.2" font-family="Courier,monospace" font-size="11.00">APIFactory</text>
</g>
</g>
</svg>
