<?xml version="1.0" encoding="UTF-8" standalone="no"?>
<!DOCTYPE svg PUBLIC "-//W3C//DTD SVG 1.1//EN"
 "http://www.w3.org/Graphics/SVG/1.1/DTD/svg11.dtd">
<!-- Generated by graphviz version 2.38.0 (20140413.2041)
 -->
<!-- Title: G Pages: 1 -->
<svg width="368pt" height="792pt"
 viewBox="0.00 0.00 367.50 792.00" xmlns="http://www.w3.org/2000/svg" xmlns:xlink="http://www.w3.org/1999/xlink">
<g id="graph0" class="graph" transform="scale(1 1) rotate(0) translate(4 788)">
<title>G</title>
<polygon fill="white" stroke="none" points="-4,4 -4,-788 363.5,-788 363.5,4 -4,4"/>
<g id="clust1" class="cluster"><title>cluster_Global</title>
<polygon fill="none" stroke="black" points="8,-8 8,-776 351.5,-776 351.5,-8 8,-8"/>
<text text-anchor="middle" x="179.75" y="-763.2" font-family="Times New Roman,serif" font-size="11.00" fill="gray">Global</text>
</g>
<g id="clust2" class="cluster"><title>cluster_\classes</title>
<polygon fill="none" stroke="black" points="16,-176 16,-748 343.5,-748 343.5,-176 16,-176"/>
<text text-anchor="middle" x="179.75" y="-735.2" font-family="Times New Roman,serif" font-size="11.00" fill="gray">classes</text>
</g>
<g id="clust6" class="cluster"><title>cluster_\classes\parsers</title>
<polygon fill="none" stroke="black" points="25.5,-594 25.5,-720 308.5,-720 308.5,-594 25.5,-594"/>
<text text-anchor="middle" x="167" y="-707.2" font-family="Times New Roman,serif" font-size="11.00" fill="gray">parsers</text>
</g>
<g id="clust8" class="cluster"><title>cluster_\classes\routing</title>
<polygon fill="none" stroke="black" points="218.5,-460 218.5,-586 298.5,-586 298.5,-460 218.5,-460"/>
<text text-anchor="middle" x="258.5" y="-573.2" font-family="Times New Roman,serif" font-size="11.00" fill="gray">routing</text>
</g>
<g id="clust3" class="cluster"><title>cluster_\classes\connections</title>
<polygon fill="none" stroke="black" points="181.5,-380 181.5,-452 335.5,-452 335.5,-380 181.5,-380"/>
<text text-anchor="middle" x="258.5" y="-439.2" font-family="Times New Roman,serif" font-size="11.00" fill="gray">connections</text>
</g>
<g id="clust4" class="cluster"><title>cluster_\classes\fileManager</title>
<polygon fill="none" stroke="black" points="24,-264 24,-372 323.5,-372 323.5,-264 24,-264"/>
<text text-anchor="middle" x="173.75" y="-359.2" font-family="Times New Roman,serif" font-size="11.00" fill="gray">fileManager</text>
</g>
<g id="clust5" class="cluster"><title>cluster_\classes\fileManager\readers</title>
<polygon fill="none" stroke="black" points="32,-272 32,-344 315.5,-344 315.5,-272 32,-272"/>
<text text-anchor="middle" x="173.75" y="-331.2" font-family="Times New Roman,serif" font-size="11.00" fill="gray">readers</text>
</g>
<g id="clust7" class="cluster"><title>cluster_\classes\queryLanguages</title>
<polygon fill="none" stroke="black" points="213.5,-184 213.5,-256 302.5,-256 302.5,-184 213.5,-184"/>
<text text-anchor="middle" x="258" y="-243.2" font-family="Times New Roman,serif" font-size="11.00" fill="gray">queryLanguages</text>
</g>
<g id="clust10" class="cluster"><title>cluster_\factories</title>
<polygon fill="none" stroke="black" points="208.5,-96 208.5,-168 308.5,-168 308.5,-96 208.5,-96"/>
<text text-anchor="middle" x="258.5" y="-155.2" font-family="Times New Roman,serif" font-size="11.00" fill="gray">factories</text>
</g>
<g id="clust9" class="cluster"><title>cluster_\connections</title>
<polygon fill="none" stroke="black" points="215,-16 215,-88 302,-88 302,-16 215,-16"/>
<text text-anchor="middle" x="258.5" y="-75.2" font-family="Times New Roman,serif" font-size="11.00" fill="gray">connections</text>
</g>
<!-- \\classes\\connections\\DatabaseConnection -->
<g id="node1" class="node"><title>\\classes\\connections\\DatabaseConnection</title>
<polygon fill="none" stroke="black" points="327.5,-424 189.5,-424 189.5,-388 327.5,-388 327.5,-424"/>
<text text-anchor="middle" x="258.5" y="-403.2" font-family="Courier,monospace" font-size="11.00">DatabaseConnection</text>
</g>
<!-- \\classes\\fileManager\\readers\\ReadSettings -->
<g id="node2" class="node"><title>\\classes\\fileManager\\readers\\ReadSettings</title>
<polygon fill="none" stroke="black" points="307.5,-316 209.5,-316 209.5,-280 307.5,-280 307.5,-316"/>
<text text-anchor="middle" x="258.5" y="-295.2" font-family="Courier,monospace" font-size="11.00">ReadSettings</text>
</g>
<!-- \\classes\\fileManager\\readers\\Readable -->
<g id="node3" class="node"><title>\\classes\\fileManager\\readers\\Readable</title>
<polygon fill="none" stroke="black" points="111,-316 40,-316 40,-280 111,-280 111,-316"/>
<text text-anchor="middle" x="75.5" y="-295.2" font-family="Courier,monospace" font-size="11.00">Readable</text>
</g>
<!-- \\classes\\fileManager\\readers\\ReadSettings&#45;&gt;\\classes\\fileManager\\readers\\Readable -->
<g id="edge1" class="edge"><title>\\classes\\fileManager\\readers\\ReadSettings&#45;&gt;\\classes\\fileManager\\readers\\Readable</title>
<path fill="none" stroke="black" stroke-dasharray="1,5" d="M209.471,-298C182.196,-298 148.264,-298 121.505,-298"/>
<polygon fill="none" stroke="black" points="121.261,-294.5 111.261,-298 121.261,-301.5 121.261,-294.5"/>
</g>
<!-- \\classes\\parsers\\JSONParser -->
<g id="node4" class="node"><title>\\classes\\parsers\\JSONParser</title>
<polygon fill="none" stroke="black" points="300.5,-692 216.5,-692 216.5,-656 300.5,-656 300.5,-692"/>
<text text-anchor="middle" x="258.5" y="-671.2" font-family="Courier,monospace" font-size="11.00">JSONParser</text>
</g>
<!-- \\classes\\parsers\\Parser -->
<g id="node5" class="node"><title>\\classes\\parsers\\Parser</title>
<polygon fill="none" stroke="black" points="117.5,-665 33.5,-665 33.5,-629 117.5,-629 117.5,-665"/>
<text text-anchor="start" x="41.5" y="-650.2" font-family="Courier,monospace" font-size="11.00">«abstract»</text>
<text text-anchor="start" x="55" y="-638.2" font-family="Courier,monospace" font-size="11.00">Parser</text>
</g>
<!-- \\classes\\parsers\\JSONParser&#45;&gt;\\classes\\parsers\\Parser -->
<g id="edge2" class="edge"><title>\\classes\\parsers\\JSONParser&#45;&gt;\\classes\\parsers\\Parser</title>
<path fill="none" stroke="black" d="M216.428,-667.873C190.139,-663.952 155.823,-658.833 127.754,-654.646"/>
<polygon fill="none" stroke="black" points="128.129,-651.163 117.722,-653.149 127.096,-658.086 128.129,-651.163"/>
</g>
<!-- \\classes\\parsers\\XMLParser -->
<g id="node6" class="node"><title>\\classes\\parsers\\XMLParser</title>
<polygon fill="none" stroke="black" points="297,-638 220,-638 220,-602 297,-602 297,-638"/>
<text text-anchor="middle" x="258.5" y="-617.2" font-family="Courier,monospace" font-size="11.00">XMLParser</text>
</g>
<!-- \\classes\\parsers\\XMLParser&#45;&gt;\\classes\\parsers\\Parser -->
<g id="edge3" class="edge"><title>\\classes\\parsers\\XMLParser&#45;&gt;\\classes\\parsers\\Parser</title>
<path fill="none" stroke="black" d="M219.997,-625.594C193.32,-629.574 157.159,-634.968 127.811,-639.346"/>
<polygon fill="none" stroke="black" points="127.116,-635.911 117.742,-640.848 128.149,-642.834 127.116,-635.911"/>
</g>
<!-- \\classes\\queryLanguages\\MySQL -->
<g id="node7" class="node"><title>\\classes\\queryLanguages\\MySQL</title>
<polygon fill="none" stroke="black" points="285.5,-228 231.5,-228 231.5,-192 285.5,-192 285.5,-228"/>
<text text-anchor="middle" x="258.5" y="-207.2" font-family="Courier,monospace" font-size="11.00">MySQL</text>
</g>
<!-- \\classes\\routing\\Request -->
<g id="node8" class="node"><title>\\classes\\routing\\Request</title>
<polygon fill="none" stroke="black" points="290.5,-558 226.5,-558 226.5,-522 290.5,-522 290.5,-558"/>
<text text-anchor="middle" x="258.5" y="-537.2" font-family="Courier,monospace" font-size="11.00">Request</text>
</g>
<!-- \\classes\\routing\\Router -->
<g id="node9" class="node"><title>\\classes\\routing\\Router</title>
<polygon fill="none" stroke="black" points="287,-504 230,-504 230,-468 287,-468 287,-504"/>
<text text-anchor="middle" x="258.5" y="-483.2" font-family="Courier,monospace" font-size="11.00">Router</text>
</g>
<!-- \\connections\\Database -->
<g id="node10" class="node"><title>\\connections\\Database</title>
<polygon fill="none" stroke="black" points="294,-60 223,-60 223,-24 294,-24 294,-60"/>
<text text-anchor="middle" x="258.5" y="-39.2" font-family="Courier,monospace" font-size="11.00">Database</text>
</g>
<!-- \\factories\\APIFactory -->
<g id="node11" class="node"><title>\\factories\\APIFactory</title>
<polygon fill="none" stroke="black" points="300.5,-140 216.5,-140 216.5,-104 300.5,-104 300.5,-140"/>
<text text-anchor="middle" x="258.5" y="-119.2" font-family="Courier,monospace" font-size="11.00">APIFactory</text>
</g>
</g>
</svg>
