<?xml version="1.0" encoding="UTF-8" standalone="no"?>
<!DOCTYPE svg PUBLIC "-//W3C//DTD SVG 1.1//EN"
 "http://www.w3.org/Graphics/SVG/1.1/DTD/svg11.dtd">
<!-- Generated by graphviz version 2.38.0 (20140413.2041)
 -->
<!-- Title: G Pages: 1 -->
<svg width="368pt" height="658pt"
 viewBox="0.00 0.00 367.50 658.00" xmlns="http://www.w3.org/2000/svg" xmlns:xlink="http://www.w3.org/1999/xlink">
<g id="graph0" class="graph" transform="scale(1 1) rotate(0) translate(4 654)">
<title>G</title>
<polygon fill="white" stroke="none" points="-4,4 -4,-654 363.5,-654 363.5,4 -4,4"/>
<g id="clust1" class="cluster"><title>cluster_Global</title>
<polygon fill="none" stroke="black" points="8,-8 8,-642 351.5,-642 351.5,-8 8,-8"/>
<text text-anchor="middle" x="179.75" y="-629.2" font-family="Times New Roman,serif" font-size="11.00" fill="gray">Global</text>
</g>
<g id="clust2" class="cluster"><title>cluster_\classes</title>
<polygon fill="none" stroke="black" points="16,-176 16,-614 343.5,-614 343.5,-176 16,-176"/>
<text text-anchor="middle" x="179.75" y="-601.2" font-family="Times New Roman,serif" font-size="11.00" fill="gray">classes</text>
</g>
<g id="clust3" class="cluster"><title>cluster_\classes\connections</title>
<polygon fill="none" stroke="black" points="181.5,-514 181.5,-586 335.5,-586 335.5,-514 181.5,-514"/>
<text text-anchor="middle" x="258.5" y="-573.2" font-family="Times New Roman,serif" font-size="11.00" fill="gray">connections</text>
</g>
<g id="clust4" class="cluster"><title>cluster_\classes\fileManager</title>
<polygon fill="none" stroke="black" points="24,-398 24,-506 323.5,-506 323.5,-398 24,-398"/>
<text text-anchor="middle" x="173.75" y="-493.2" font-family="Times New Roman,serif" font-size="11.00" fill="gray">fileManager</text>
</g>
<g id="clust5" class="cluster"><title>cluster_\classes\fileManager\readers</title>
<polygon fill="none" stroke="black" points="32,-406 32,-478 315.5,-478 315.5,-406 32,-406"/>
<text text-anchor="middle" x="173.75" y="-465.2" font-family="Times New Roman,serif" font-size="11.00" fill="gray">readers</text>
</g>
<g id="clust6" class="cluster"><title>cluster_\classes\parsers</title>
<polygon fill="none" stroke="black" points="25.5,-264 25.5,-390 308.5,-390 308.5,-264 25.5,-264"/>
<text text-anchor="middle" x="167" y="-377.2" font-family="Times New Roman,serif" font-size="11.00" fill="gray">parsers</text>
</g>
<g id="clust7" class="cluster"><title>cluster_\classes\queryLanguages</title>
<polygon fill="none" stroke="black" points="213.5,-184 213.5,-256 302.5,-256 302.5,-184 213.5,-184"/>
<text text-anchor="middle" x="258" y="-243.2" font-family="Times New Roman,serif" font-size="11.00" fill="gray">queryLanguages</text>
</g>
<g id="clust8" class="cluster"><title>cluster_\connections</title>
<polygon fill="none" stroke="black" points="215,-96 215,-168 302,-168 302,-96 215,-96"/>
<text text-anchor="middle" x="258.5" y="-155.2" font-family="Times New Roman,serif" font-size="11.00" fill="gray">connections</text>
</g>
<g id="clust9" class="cluster"><title>cluster_\factories</title>
<polygon fill="none" stroke="black" points="208.5,-16 208.5,-88 308.5,-88 308.5,-16 208.5,-16"/>
<text text-anchor="middle" x="258.5" y="-75.2" font-family="Times New Roman,serif" font-size="11.00" fill="gray">factories</text>
</g>
<!-- \\classes\\connections\\DatabaseConnection -->
<g id="node1" class="node"><title>\\classes\\connections\\DatabaseConnection</title>
<polygon fill="none" stroke="black" points="327.5,-558 189.5,-558 189.5,-522 327.5,-522 327.5,-558"/>
<text text-anchor="middle" x="258.5" y="-537.2" font-family="Courier,monospace" font-size="11.00">DatabaseConnection</text>
</g>
<!-- \\classes\\fileManager\\readers\\ReadSettings -->
<g id="node2" class="node"><title>\\classes\\fileManager\\readers\\ReadSettings</title>
<polygon fill="none" stroke="black" points="307.5,-450 209.5,-450 209.5,-414 307.5,-414 307.5,-450"/>
<text text-anchor="middle" x="258.5" y="-429.2" font-family="Courier,monospace" font-size="11.00">ReadSettings</text>
</g>
<!-- \\classes\\fileManager\\readers\\Readable -->
<g id="node3" class="node"><title>\\classes\\fileManager\\readers\\Readable</title>
<polygon fill="none" stroke="black" points="111,-450 40,-450 40,-414 111,-414 111,-450"/>
<text text-anchor="middle" x="75.5" y="-429.2" font-family="Courier,monospace" font-size="11.00">Readable</text>
</g>
<!-- \\classes\\fileManager\\readers\\ReadSettings&#45;&gt;\\classes\\fileManager\\readers\\Readable -->
<g id="edge1" class="edge"><title>\\classes\\fileManager\\readers\\ReadSettings&#45;&gt;\\classes\\fileManager\\readers\\Readable</title>
<path fill="none" stroke="black" stroke-dasharray="1,5" d="M209.471,-432C182.196,-432 148.264,-432 121.505,-432"/>
<polygon fill="none" stroke="black" points="121.261,-428.5 111.261,-432 121.261,-435.5 121.261,-428.5"/>
</g>
<!-- \\classes\\parsers\\JSONParser -->
<g id="node4" class="node"><title>\\classes\\parsers\\JSONParser</title>
<polygon fill="none" stroke="black" points="300.5,-362 216.5,-362 216.5,-326 300.5,-326 300.5,-362"/>
<text text-anchor="middle" x="258.5" y="-341.2" font-family="Courier,monospace" font-size="11.00">JSONParser</text>
</g>
<!-- \\classes\\parsers\\Parser -->
<g id="node5" class="node"><title>\\classes\\parsers\\Parser</title>
<polygon fill="none" stroke="black" points="117.5,-335 33.5,-335 33.5,-299 117.5,-299 117.5,-335"/>
<text text-anchor="start" x="41.5" y="-320.2" font-family="Courier,monospace" font-size="11.00">«abstract»</text>
<text text-anchor="start" x="55" y="-308.2" font-family="Courier,monospace" font-size="11.00">Parser</text>
</g>
<!-- \\classes\\parsers\\JSONParser&#45;&gt;\\classes\\parsers\\Parser -->
<g id="edge2" class="edge"><title>\\classes\\parsers\\JSONParser&#45;&gt;\\classes\\parsers\\Parser</title>
<path fill="none" stroke="black" d="M216.428,-337.873C190.139,-333.952 155.823,-328.833 127.754,-324.646"/>
<polygon fill="none" stroke="black" points="128.129,-321.163 117.722,-323.149 127.096,-328.086 128.129,-321.163"/>
</g>
<!-- \\classes\\parsers\\XMLParser -->
<g id="node6" class="node"><title>\\classes\\parsers\\XMLParser</title>
<polygon fill="none" stroke="black" points="297,-308 220,-308 220,-272 297,-272 297,-308"/>
<text text-anchor="middle" x="258.5" y="-287.2" font-family="Courier,monospace" font-size="11.00">XMLParser</text>
</g>
<!-- \\classes\\parsers\\XMLParser&#45;&gt;\\classes\\parsers\\Parser -->
<g id="edge3" class="edge"><title>\\classes\\parsers\\XMLParser&#45;&gt;\\classes\\parsers\\Parser</title>
<path fill="none" stroke="black" d="M219.997,-295.594C193.32,-299.574 157.159,-304.968 127.811,-309.346"/>
<polygon fill="none" stroke="black" points="127.116,-305.911 117.742,-310.848 128.149,-312.834 127.116,-305.911"/>
</g>
<!-- \\classes\\queryLanguages\\MySQL -->
<g id="node7" class="node"><title>\\classes\\queryLanguages\\MySQL</title>
<polygon fill="none" stroke="black" points="285.5,-228 231.5,-228 231.5,-192 285.5,-192 285.5,-228"/>
<text text-anchor="middle" x="258.5" y="-207.2" font-family="Courier,monospace" font-size="11.00">MySQL</text>
</g>
<!-- \\connections\\Database -->
<g id="node8" class="node"><title>\\connections\\Database</title>
<polygon fill="none" stroke="black" points="294,-140 223,-140 223,-104 294,-104 294,-140"/>
<text text-anchor="middle" x="258.5" y="-119.2" font-family="Courier,monospace" font-size="11.00">Database</text>
</g>
<!-- \\factories\\APIFactory -->
<g id="node9" class="node"><title>\\factories\\APIFactory</title>
<polygon fill="none" stroke="black" points="300.5,-60 216.5,-60 216.5,-24 300.5,-24 300.5,-60"/>
<text text-anchor="middle" x="258.5" y="-39.2" font-family="Courier,monospace" font-size="11.00">APIFactory</text>
</g>
</g>
</svg>
